<?xml version="1.0" encoding="UTF-8" standalone="no"?>
<!-- Created with Inkscape (http://www.inkscape.org/) -->

<svg
   width="138.56291mm"
   height="28.768106mm"
   viewBox="0 0 138.56291 28.768106"
   version="1.1"
   id="svg5"
   inkscape:version="1.1.2 (b8e25be833, 2022-02-05)"
   sodipodi:docname="mclab-logo.svg"
   xmlns:inkscape="http://www.inkscape.org/namespaces/inkscape"
   xmlns:sodipodi="http://sodipodi.sourceforge.net/DTD/sodipodi-0.dtd"
   xmlns="http://www.w3.org/2000/svg"
   xmlns:svg="http://www.w3.org/2000/svg">
  <sodipodi:namedview
     id="namedview7"
     pagecolor="#ffffff"
     bordercolor="#666666"
     borderopacity="1.0"
     inkscape:pageshadow="2"
     inkscape:pageopacity="0.0"
     inkscape:pagecheckerboard="0"
     inkscape:document-units="mm"
     showgrid="false"
     inkscape:zoom="1.0406414"
     inkscape:cx="166.24363"
     inkscape:cy="184.98208"
     inkscape:window-width="1920"
     inkscape:window-height="1010"
     inkscape:window-x="-7"
     inkscape:window-y="-7"
     inkscape:window-maximized="1"
     inkscape:current-layer="g860"
     showguides="false" />
  <defs
     id="defs2" />
  <g
     inkscape:label="Layer 1"
     inkscape:groupmode="layer"
     id="layer1"
     transform="translate(-34.468102,-105.0539)">
    <g
       id="g860"
       transform="matrix(0.51296453,0,0,0.51296453,32.9426,106.01026)">
      <path
         fill="#c9caca"
         d="m 41.943893,16.513054 v 18 l 7.8,4.5 v -27 z"
         id="path836" />
      <path
         fill="#fdd000"
         d="m 2.9738929,12.013054 v 4.02 l 23.3800001,13.5 23.39,-13.5 v -4.02 l -3.48,-2.01 -19.91,11.49 -19.9000001,-11.49 z"
         id="path838"
         style="fill:#56729d;fill-opacity:1" />
      <path
         fill="#ffffff"
         d="m 10.763893,20.533054 -7.7900001,-4.5 v 22.98 l 23.3800001,13.5 v -9 l -15.59,-9 z m 3.49,-6.03 12.1,-6.9900004 12.11,6.9900004 7.8,-4.5 -19.91,-11.4900004 L 6.4538929,10.003054 Z"
         id="path840"
         inkscape:label="path840"
         style="fill:#3e3e3e;fill-opacity:1" />
      <path
         fill="#b5b5b6"
         d="m 49.743893,16.513054 -7.8,4.49 v -0.46 l 7.8,-4.5 z"
         id="path842" />
      <g
         aria-label="山口研究室"
         id="text4636"
         style="font-size:31.4843px;line-height:1.25;font-family:ToaHI;-inkscape-font-specification:'ToaHI, Normal';stroke-width:0.787107">
        <path
           d="M 88.90796,23.637896 V 1.2840422 h 3.526241 V 26.786326 H 64.728017 V 1.2840422 h 3.526241 V 23.637896 h 8.437793 V -1.2347019 h 3.526242 V 23.637896 Z"
           id="path8525" />
        <path
           d="M 124.07592,-0.76243735 V 26.628904 H 96.054896 V -0.76243735 Z M 99.581138,2.4489613 V 23.417506 H 120.54968 V 2.4489613 Z"
           id="path8527" />
        <path
           d="m 127.22435,-1.2347019 h 10.2324 v 2.9910086 h -6.92654 v 6.9265461 h 6.92654 V 27.101169 h -10.2324 z m 28.96556,0 v 3.0539772 h -2.83359 v 8.4377927 h 2.83359 v 3.053977 h -2.83359 V 27.101169 H 149.9875 V 13.311045 h -4.59671 v 13.790124 h -6.2024 V 24.11016 h 2.83358 V 13.311045 h -2.83358 v -3.053977 h 2.83358 V 1.8192753 h -2.83358 V -1.2347019 Z M 145.39079,10.257068 h 4.59671 V 1.8192753 h -4.59671 z M 134.1509,24.11016 V 11.673861 h -3.62069 V 24.11016 Z"
           id="path8529" />
        <path
           d="m 174.70268,-1.8643879 v 2.36132257 h 12.49927 V 6.6993419 h -3.36882 V 3.5509118 h -5.06897 v 5.0374881 h 8.43779 V 11.642377 H 175.39534 V 3.5509118 h -4.88007 V 11.642377 H 158.86608 V 8.5883999 h 8.28037 V 3.5509118 h -4.91155 v 3.1484301 h -3.36882 V 0.49693467 h 12.21591 V -1.8643879 Z m 8.56373,15.7106659 v 10.200914 h 3.93554 v 3.053977 h -7.33584 V 16.900255 h -13.0345 v 10.200914 h -7.96553 v -3.053977 h 4.56522 v -7.146937 h -4.56522 v -3.053977 z"
           id="path8531" />
        <path
           d="m 206.28143,-1.8643879 v 2.04647957 h 12.56224 V 7.2660593 h -3.30585 V 3.1731002 h -22.03901 v 4.0929591 h -3.30586 V 0.18209167 h 12.46779 V -1.8643879 Z m 11.93255,22.6686969 h -12.12145 v 3.305851 h 12.75114 v 2.991009 H 190.19295 V 24.11016 h 12.59372 V 20.804309 H 190.82264 V 17.8133 h 11.96403 v -3.14843 h -11.96403 v -2.991009 h 4.72265 V 5.3770013 h 17.94605 v 2.9910085 h -14.6402 v 3.3058512 h 16.05699 V 9.1551173 h 3.30585 V 14.66487 h -12.12145 v 3.14843 h 12.12145 z"
           id="path8533" />
      </g>
      <g
         aria-label="Mobile Computing Lab."
         id="text4636-6"
         style="font-size:16.8646px;line-height:1.25;font-family:ToaHI;-inkscape-font-specification:'ToaHI, Normal';stroke-width:0.791305">
        <path
           d="M 74.970459,36.678487 V 50.676104 H 73.03103 V 38.44927 H 70.282101 V 50.676104 H 68.342672 V 38.44927 H 65.610607 V 50.676104 H 63.671178 V 36.678487 Z"
           id="path8486" />
        <path
           d="m 76.926768,41.063283 h 9.781467 v 9.612821 h -9.781467 z m 1.939429,7.842038 h 5.90261 v -6.071256 h -5.90261 z"
           id="path8488" />
        <path
           d="m 90.53649,36.678487 v 4.384796 h 7.842038 v 9.612821 H 88.597061 V 36.678487 Z m 0,12.226834 h 5.902609 V 42.834065 H 90.53649 Z"
           id="path8490" />
        <path
           d="m 100.31795,39.208177 v -1.855106 h 1.97316 v 1.855106 z m 0,11.467927 v -9.612821 h 1.97316 v 9.612821 z"
           id="path8492" />
        <path
           d="M 104.28114,50.676104 V 36.678487 h 1.97315 v 13.997617 z"
           id="path8494" />
        <path
           d="m 108.19373,41.063283 h 9.78147 v 5.64964 h -7.87577 v 2.192398 h 7.87577 v 1.770783 h -9.78147 z m 1.9057,3.878857 h 5.97007 v -2.108075 h -5.97007 z"
           id="path8496" />
        <path
           d="m 138.22958,36.678487 v 1.804512 h -7.89263 v 10.388593 h 7.89263 v 1.804512 h -9.86579 V 36.678487 Z"
           id="path8498" />
        <path
           d="m 140.01722,41.063283 h 9.78146 v 9.612821 h -9.78146 z m 1.93943,7.842038 h 5.90261 v -6.071256 h -5.90261 z"
           id="path8500" />
        <path
           d="m 151.68751,41.063283 h 10.6247 v 9.612821 h -1.9057 v -7.875768 h -2.46223 v 7.875768 h -1.9057 v -7.875768 h -2.44537 v 7.875768 h -1.9057 z"
           id="path8502" />
        <path
           d="m 164.20106,41.063283 h 9.78146 v 9.612821 h -7.84204 v 3.541566 h -1.93942 z m 1.93942,7.842038 h 5.90261 v -6.071256 h -5.90261 z"
           id="path8504" />
        <path
           d="m 183.71338,48.905321 v -7.842038 h 1.93943 v 9.612821 h -9.78147 v -9.612821 h 1.93943 v 7.842038 z"
           id="path8506" />
        <path
           d="m 187.37299,41.063283 h 10.69216 v 1.770782 h -4.36793 v 7.842039 h -1.97316 v -7.842039 h -4.35107 z"
           id="path8508" />
        <path
           d="m 199.83592,39.208177 v -1.855106 h 1.97316 v 1.855106 z m 0,11.467927 v -9.612821 h 1.97316 v 9.612821 z"
           id="path8510" />
        <path
           d="m 203.74853,41.063283 h 9.78146 v 9.612821 h -1.93943 v -7.842039 h -5.90261 v 7.842039 h -1.93942 z"
           id="path8512" />
        <path
           d="m 215.41881,41.063283 h 9.78147 V 54.21767 h -9.78147 v -1.770783 h 7.84204 v -1.770783 h -7.84204 z m 1.93943,7.842038 h 5.90261 v -6.071256 h -5.90261 z"
           id="path8514" />
        <path
           d="m 237.56203,36.678487 v 12.193105 h 7.89263 v 1.804512 h -9.86579 V 36.678487 Z"
           id="path8516" />
        <path
           d="m 247.2423,42.834065 v -1.770782 h 9.78147 v 9.612821 H 247.2423 V 44.94214 h 7.87577 v -2.108075 z m 1.9057,6.071256 h 5.97007 V 46.712923 H 249.148 Z"
           id="path8518" />
        <path
           d="m 260.85203,36.678487 v 4.384796 h 7.84204 v 9.612821 H 258.9126 V 36.678487 Z m 0,12.226834 h 5.90261 v -6.071256 h -5.90261 z"
           id="path8520" />
        <path
           d="m 270.90332,50.676104 v -2.192398 h 2.1924 v 2.192398 z"
           id="path8522" />
      </g>
    </g>
  </g>
</svg>
